<?xml version="1.0" standalone="no"?>
<!DOCTYPE svg PUBLIC "-//W3C//DTD SVG 20010904//EN"
 "http://www.w3.org/TR/2001/REC-SVG-20010904/DTD/svg10.dtd">
<svg version="1.0" xmlns="http://www.w3.org/2000/svg"
 width="400.000000pt" height="391.000000pt" viewBox="0 0 400.000000 391.000000"
 preserveAspectRatio="xMidYMid meet">
<metadata>
Created by potrace 1.16, written by Peter Selinger 2001-2019
</metadata>
<g transform="translate(0.000000,391.000000) scale(0.100000,-0.100000)"
fill="#000000" stroke="none">
<path d="M1820 3500 c-243 -25 -482 -114 -705 -264 -124 -84 -311 -273 -398
-402 -147 -220 -237 -473 -254 -714 l-6 -90 458 2 459 3 18 74 c54 221 211
385 438 457 74 24 243 24 322 1 222 -66 397 -252 441 -467 l13 -65 462 -3 463
-2 -6 62 c-41 408 -212 756 -499 1015 -213 193 -489 331 -756 377 -115 20
-333 28 -450 16z"/>
<path d="M1819 2411 c-83 -35 -114 -57 -179 -128 -91 -99 -127 -206 -117 -348
9 -139 65 -243 182 -337 83 -68 148 -91 267 -96 143 -6 233 28 337 124 113
105 156 214 149 376 -4 84 -9 106 -36 160 -68 135 -133 196 -265 250 -61 25
-81 28 -171 27 -87 0 -110 -4 -167 -28z"/>
<path d="M460 1863 c0 -115 43 -308 101 -458 151 -390 481 -718 874 -868 335
-129 720 -136 1059 -20 121 41 282 124 391 201 103 74 285 255 358 358 160
227 253 483 281 772 l6 62 -461 -2 -461 -3 -22 -85 c-52 -210 -231 -390 -441
-445 -79 -20 -240 -20 -313 1 -111 32 -192 81 -277 168 -89 91 -135 171 -164
290 l-17 71 -457 3 -457 2 0 -47z"/>
</g>
</svg>
